<mxfile modified="2022-05-02T20:20:59.076Z" host="app.diagrams.net" agent="5.0 (Windows NT 10.0; Win64; x64) AppleWebKit/537.36 (KHTML, like Gecko) Chrome/100.0.4896.127 Safari/537.36 Edg/100.0.1185.50" etag="pTLn9ANorHAMxQqsdwMG" compressed="false" version="17.5.0" type="google">
  <diagram name="Qualities/Addressed/Performance" id="T1eC-jE7gISCEI7qkxzW">
    <mxGraphModel grid="1" page="1" gridSize="10" guides="1" tooltips="1" connect="1" arrows="1" fold="1" pageScale="1" pageWidth="827" pageHeight="1169" math="0" shadow="0">
      <root>
        <mxCell id="1I5frH841V0Z4SZeIjgv-0" />
        <mxCell id="1I5frH841V0Z4SZeIjgv-9" value="Diagram" parent="1I5frH841V0Z4SZeIjgv-0" />
        <UserObject label="Using SPA UX patterns." id="3i3NR0ILQ0gcKOtuh5dM-5">
          <mxCell style="strokeColor=#bac8d3;html=1;fontColor=#2f5b7c;fontSize=11;align=left;fontStyle=2" vertex="1" parent="1I5frH841V0Z4SZeIjgv-9">
            <mxGeometry x="161" y="360" width="520" height="20" as="geometry" />
          </mxCell>
        </UserObject>
        <UserObject label="Quality" id="1I5frH841V0Z4SZeIjgv-16">
          <mxCell style="strokeColor=#bac8d3;html=1;fontColor=#2f5b7c;fontSize=12;align=left;horizontal=0;fillColor=#E6E6E6;" vertex="1" parent="1I5frH841V0Z4SZeIjgv-9">
            <mxGeometry x="140" y="180" width="20" height="100" as="geometry" />
          </mxCell>
        </UserObject>
        <UserObject label="Feature/Control" id="1I5frH841V0Z4SZeIjgv-17">
          <mxCell style="strokeColor=#bac8d3;html=1;fontColor=#2f5b7c;fontSize=12;align=left;horizontal=0;fontStyle=2" vertex="1" parent="1I5frH841V0Z4SZeIjgv-9">
            <mxGeometry x="160" y="180" width="20" height="100" as="geometry" />
          </mxCell>
        </UserObject>
        <UserObject label="ISO-25010/Performance" id="1I5frH841V0Z4SZeIjgv-24">
          <mxCell style="strokeColor=#666666;html=1;fontColor=#333333;fontSize=12;align=left;fontStyle=1;fillColor=#CCCCCC;" vertex="1" parent="1I5frH841V0Z4SZeIjgv-9">
            <mxGeometry x="120" y="280" width="560" height="20" as="geometry" />
          </mxCell>
        </UserObject>
        <UserObject label="Group" id="1I5frH841V0Z4SZeIjgv-25">
          <mxCell style="strokeColor=#666666;html=1;fontColor=#333333;fontSize=12;align=left;horizontal=0;fillColor=#f5f5f5;" vertex="1" parent="1I5frH841V0Z4SZeIjgv-9">
            <mxGeometry x="120" y="180" width="20" height="100" as="geometry" />
          </mxCell>
        </UserObject>
        <UserObject label="Issue/Risk" id="3i3NR0ILQ0gcKOtuh5dM-6">
          <mxCell style="strokeColor=#bac8d3;html=1;fontColor=#2f5b7c;fontSize=12;align=left;horizontal=0;fontStyle=2" vertex="1" parent="1I5frH841V0Z4SZeIjgv-9">
            <mxGeometry x="180" y="180" width="20" height="100" as="geometry" />
          </mxCell>
        </UserObject>
        <UserObject label="Infrastructure" id="723WRU80WhyjmxV2qoD5-0">
          <mxCell style="strokeColor=#bac8d3;html=1;fontColor=#2f5b7c;fontSize=12;align=left;horizontal=0;fontStyle=2" vertex="1" parent="1I5frH841V0Z4SZeIjgv-9">
            <mxGeometry x="600" y="180" width="20" height="100" as="geometry" />
          </mxCell>
        </UserObject>
        <UserObject label="Info Svc" id="723WRU80WhyjmxV2qoD5-1">
          <mxCell style="strokeColor=#bac8d3;html=1;fontColor=#2f5b7c;fontSize=12;align=left;horizontal=0;fontStyle=2" vertex="1" parent="1I5frH841V0Z4SZeIjgv-9">
            <mxGeometry x="640" y="180" width="20" height="100" as="geometry" />
          </mxCell>
        </UserObject>
        <UserObject label="Info Svc Client" id="723WRU80WhyjmxV2qoD5-2">
          <mxCell style="strokeColor=#bac8d3;html=1;fontColor=#2f5b7c;fontSize=12;align=left;horizontal=0;fontStyle=2" vertex="1" parent="1I5frH841V0Z4SZeIjgv-9">
            <mxGeometry x="660" y="180" width="20" height="100" as="geometry" />
          </mxCell>
        </UserObject>
        <UserObject label="Delivery Service" id="723WRU80WhyjmxV2qoD5-3">
          <mxCell style="strokeColor=#bac8d3;html=1;fontColor=#2f5b7c;fontSize=12;align=left;horizontal=0;fontStyle=2" vertex="1" parent="1I5frH841V0Z4SZeIjgv-9">
            <mxGeometry x="620" y="180" width="20" height="100" as="geometry" />
          </mxCell>
        </UserObject>
        <UserObject label="Processes" id="723WRU80WhyjmxV2qoD5-4">
          <mxCell style="strokeColor=#bac8d3;html=1;fontColor=#2f5b7c;fontSize=12;align=left;horizontal=0;fontStyle=2" vertex="1" parent="1I5frH841V0Z4SZeIjgv-9">
            <mxGeometry x="580" y="180" width="20" height="100" as="geometry" />
          </mxCell>
        </UserObject>
        <UserObject label="Time-Behaviour" id="1I5frH841V0Z4SZeIjgv-15">
          <mxCell style="strokeColor=#bac8d3;html=1;fontColor=#2f5b7c;fontSize=12;align=left;fillColor=#E6E6E6;" vertex="1" parent="1I5frH841V0Z4SZeIjgv-9">
            <mxGeometry x="140" y="300" width="540" height="20" as="geometry" />
          </mxCell>
        </UserObject>
        <UserObject label="Caching of mutable data is used." id="1I5frH841V0Z4SZeIjgv-18">
          <mxCell style="strokeColor=#bac8d3;html=1;fontColor=#2f5b7c;fontSize=11;align=left;fontStyle=2" vertex="1" parent="1I5frH841V0Z4SZeIjgv-9">
            <mxGeometry x="160" y="320" width="520" height="20" as="geometry" />
          </mxCell>
        </UserObject>
        <UserObject label="Using SPA UX patterns." id="1I5frH841V0Z4SZeIjgv-29">
          <mxCell style="strokeColor=#bac8d3;html=1;fontColor=#2f5b7c;fontSize=11;align=left;fontStyle=2" vertex="1" parent="1I5frH841V0Z4SZeIjgv-9">
            <mxGeometry x="160" y="420" width="520" height="20" as="geometry" />
          </mxCell>
        </UserObject>
        <UserObject label="Resource Usage" id="j0KbrLCN84zGIEM_3fmk-0">
          <mxCell style="strokeColor=#bac8d3;html=1;fontColor=#2f5b7c;fontSize=12;align=left;fillColor=#E6E6E6;" vertex="1" parent="1I5frH841V0Z4SZeIjgv-9">
            <mxGeometry x="140" y="400" width="540" height="20" as="geometry" />
          </mxCell>
        </UserObject>
        <mxCell id="723WRU80WhyjmxV2qoD5-6" value="&lt;b&gt;X&lt;/b&gt;" style="text;html=1;strokeColor=#666666;fillColor=#f5f5f5;align=center;verticalAlign=middle;whiteSpace=wrap;rounded=0;fontSize=12;fontColor=#333333;" vertex="1" parent="1I5frH841V0Z4SZeIjgv-9">
          <mxGeometry x="600" y="320" width="20" height="20" as="geometry" />
        </mxCell>
        <mxCell id="723WRU80WhyjmxV2qoD5-8" value="&lt;b&gt;X&lt;/b&gt;" style="text;html=1;strokeColor=#666666;fillColor=#f5f5f5;align=center;verticalAlign=middle;whiteSpace=wrap;rounded=0;fontSize=12;fontColor=#333333;" vertex="1" parent="1I5frH841V0Z4SZeIjgv-9">
          <mxGeometry x="650" y="340" width="20" height="20" as="geometry" />
        </mxCell>
        <mxCell id="723WRU80WhyjmxV2qoD5-5" value="&lt;b&gt;X&lt;/b&gt;" style="text;html=1;strokeColor=#666666;fillColor=#f5f5f5;align=center;verticalAlign=middle;whiteSpace=wrap;rounded=0;fontSize=12;fontColor=#333333;" vertex="1" parent="1I5frH841V0Z4SZeIjgv-9">
          <mxGeometry x="640" y="320" width="20" height="20" as="geometry" />
        </mxCell>
        <mxCell id="723WRU80WhyjmxV2qoD5-9" value="&lt;b&gt;X&lt;/b&gt;" style="text;html=1;strokeColor=#666666;fillColor=#f5f5f5;align=center;verticalAlign=middle;whiteSpace=wrap;rounded=0;fontSize=12;fontColor=#333333;" vertex="1" parent="1I5frH841V0Z4SZeIjgv-9">
          <mxGeometry x="660" y="360" width="20" height="20" as="geometry" />
        </mxCell>
        <UserObject label="System is slowed by repetitive access to Db." id="1I5frH841V0Z4SZeIjgv-2">
          <mxCell style="strokeColor=#bac8d3;html=1;fontColor=#2f5b7c;fontSize=11;align=left;fontStyle=2" vertex="1" parent="1I5frH841V0Z4SZeIjgv-9">
            <mxGeometry x="180" y="340" width="500" height="20" as="geometry" />
          </mxCell>
        </UserObject>
        <UserObject label="MLA pages increase resource and bandwidth usage." id="1I5frH841V0Z4SZeIjgv-3">
          <mxCell style="strokeColor=#bac8d3;html=1;fontColor=#2f5b7c;fontSize=11;align=left;fontStyle=2" vertex="1" parent="1I5frH841V0Z4SZeIjgv-9">
            <mxGeometry x="180" y="440" width="500" height="20" as="geometry" />
          </mxCell>
        </UserObject>
        <UserObject label="Throughput" id="cnybDc7rzt80PGi-iK4d-0">
          <mxCell style="strokeColor=#bac8d3;html=1;fontColor=#2f5b7c;fontSize=12;align=left;fillColor=#E6E6E6;" vertex="1" parent="1I5frH841V0Z4SZeIjgv-9">
            <mxGeometry x="140" y="540" width="540" height="20" as="geometry" />
          </mxCell>
        </UserObject>
        <UserObject label="Built on Kestrel web server." id="cnybDc7rzt80PGi-iK4d-1">
          <mxCell style="strokeColor=#bac8d3;html=1;fontColor=#2f5b7c;fontSize=11;align=left;fontStyle=2" vertex="1" parent="1I5frH841V0Z4SZeIjgv-9">
            <mxGeometry x="160" y="460" width="520" height="20" as="geometry" />
          </mxCell>
        </UserObject>
        <UserObject label="Deployed upon Kestrel web server." id="cnybDc7rzt80PGi-iK4d-2">
          <mxCell style="strokeColor=#bac8d3;html=1;fontColor=#2f5b7c;fontSize=11;align=left;" vertex="1" parent="1I5frH841V0Z4SZeIjgv-9">
            <mxGeometry x="160" y="560" width="520" height="20" as="geometry" />
          </mxCell>
        </UserObject>
        <UserObject label="Using Async Development patterns." id="cnybDc7rzt80PGi-iK4d-3">
          <mxCell style="strokeColor=#bac8d3;html=1;fontColor=#2f5b7c;fontSize=11;align=left;fontStyle=2" vertex="1" parent="1I5frH841V0Z4SZeIjgv-9">
            <mxGeometry x="160" y="500" width="520" height="20" as="geometry" />
          </mxCell>
        </UserObject>
        <UserObject label="If left on IIS will require more CPU (cost units)." id="cnybDc7rzt80PGi-iK4d-4">
          <mxCell style="strokeColor=#bac8d3;html=1;fontColor=#2f5b7c;fontSize=11;align=left;fontStyle=2" vertex="1" parent="1I5frH841V0Z4SZeIjgv-9">
            <mxGeometry x="180" y="480" width="500" height="20" as="geometry" />
          </mxCell>
        </UserObject>
        <UserObject label="If threads are held, DB limits requests to approx 400/sec." id="cnybDc7rzt80PGi-iK4d-5">
          <mxCell style="strokeColor=#bac8d3;html=1;fontColor=#2f5b7c;fontSize=11;align=left;fontStyle=2" vertex="1" parent="1I5frH841V0Z4SZeIjgv-9">
            <mxGeometry x="180" y="520" width="500" height="20" as="geometry" />
          </mxCell>
        </UserObject>
        <UserObject label="If threads are held, DB limits requests to approx 400/sec." id="cnybDc7rzt80PGi-iK4d-6">
          <mxCell style="strokeColor=#bac8d3;html=1;fontColor=#2f5b7c;fontSize=11;align=left;fontStyle=2" vertex="1" parent="1I5frH841V0Z4SZeIjgv-9">
            <mxGeometry x="180" y="580" width="500" height="20" as="geometry" />
          </mxCell>
        </UserObject>
        <UserObject label="JSON payloads improve responsiveness." id="3i3NR0ILQ0gcKOtuh5dM-1">
          <mxCell style="strokeColor=#bac8d3;html=1;fontColor=#2f5b7c;fontSize=11;align=left;fontStyle=2" vertex="1" parent="1I5frH841V0Z4SZeIjgv-9">
            <mxGeometry x="180" y="380" width="500" height="20" as="geometry" />
          </mxCell>
        </UserObject>
        <mxCell id="723WRU80WhyjmxV2qoD5-10" value="&lt;b&gt;X&lt;/b&gt;" style="text;html=1;strokeColor=#666666;fillColor=#f5f5f5;align=center;verticalAlign=middle;whiteSpace=wrap;rounded=0;fontSize=12;fontColor=#333333;" vertex="1" parent="1I5frH841V0Z4SZeIjgv-9">
          <mxGeometry x="660" y="420" width="20" height="20" as="geometry" />
        </mxCell>
        <mxCell id="723WRU80WhyjmxV2qoD5-11" value="&lt;b&gt;X&lt;/b&gt;" style="text;html=1;strokeColor=#666666;fillColor=#f5f5f5;align=center;verticalAlign=middle;whiteSpace=wrap;rounded=0;fontSize=12;fontColor=#333333;" vertex="1" parent="1I5frH841V0Z4SZeIjgv-9">
          <mxGeometry x="640" y="460" width="20" height="20" as="geometry" />
        </mxCell>
        <mxCell id="723WRU80WhyjmxV2qoD5-12" value="&lt;b&gt;X&lt;/b&gt;" style="text;html=1;strokeColor=#666666;fillColor=#f5f5f5;align=center;verticalAlign=middle;whiteSpace=wrap;rounded=0;fontSize=12;fontColor=#333333;" vertex="1" parent="1I5frH841V0Z4SZeIjgv-9">
          <mxGeometry x="580" y="501" width="20" height="20" as="geometry" />
        </mxCell>
        <mxCell id="723WRU80WhyjmxV2qoD5-13" value="&lt;b&gt;X&lt;/b&gt;" style="text;html=1;strokeColor=#666666;fillColor=#f5f5f5;align=center;verticalAlign=middle;whiteSpace=wrap;rounded=0;fontSize=12;fontColor=#333333;" vertex="1" parent="1I5frH841V0Z4SZeIjgv-9">
          <mxGeometry x="640" y="501" width="20" height="20" as="geometry" />
        </mxCell>
        <mxCell id="723WRU80WhyjmxV2qoD5-14" value="&lt;b&gt;X&lt;/b&gt;" style="text;html=1;strokeColor=#666666;fillColor=#f5f5f5;align=center;verticalAlign=middle;whiteSpace=wrap;rounded=0;fontSize=12;fontColor=#333333;" vertex="1" parent="1I5frH841V0Z4SZeIjgv-9">
          <mxGeometry x="660" y="501" width="20" height="20" as="geometry" />
        </mxCell>
        <mxCell id="723WRU80WhyjmxV2qoD5-15" value="&lt;b&gt;X&lt;/b&gt;" style="text;html=1;strokeColor=#666666;fillColor=#f5f5f5;align=center;verticalAlign=middle;whiteSpace=wrap;rounded=0;fontSize=12;fontColor=#333333;" vertex="1" parent="1I5frH841V0Z4SZeIjgv-9">
          <mxGeometry x="640" y="560" width="20" height="20" as="geometry" />
        </mxCell>
        <mxCell id="723WRU80WhyjmxV2qoD5-16" value="&lt;b&gt;X&lt;/b&gt;" style="text;html=1;strokeColor=#666666;fillColor=#f5f5f5;align=center;verticalAlign=middle;whiteSpace=wrap;rounded=0;fontSize=12;fontColor=#333333;" vertex="1" parent="1I5frH841V0Z4SZeIjgv-9">
          <mxGeometry x="620" y="560" width="20" height="20" as="geometry" />
        </mxCell>
        <mxCell id="723WRU80WhyjmxV2qoD5-17" value="&lt;b&gt;X&lt;/b&gt;" style="text;html=1;strokeColor=#666666;fillColor=#f5f5f5;align=center;verticalAlign=middle;whiteSpace=wrap;rounded=0;fontSize=12;fontColor=#333333;" vertex="1" parent="1I5frH841V0Z4SZeIjgv-9">
          <mxGeometry x="620" y="460" width="20" height="20" as="geometry" />
        </mxCell>
        <mxCell id="b-44PByNiRyOyj7eA2m--0" value="Title/Diagram" parent="1I5frH841V0Z4SZeIjgv-0" />
        <mxCell id="b-44PByNiRyOyj7eA2m--1" value="&lt;span style=&quot;font-weight: normal&quot;&gt;&lt;i&gt;&lt;span style=&quot;font-size: 12px&quot;&gt;Diagram: Base System Logical Module - Qualities -&amp;nbsp;&lt;/span&gt;&lt;span style=&quot;font-size: 12px&quot;&gt;ISO-25010 Qualities Addressed - Performance&lt;/span&gt;&lt;/i&gt;&lt;/span&gt;" style="text;strokeColor=none;fillColor=none;html=1;fontSize=12;fontStyle=1;verticalAlign=middle;align=left;shadow=0;glass=0;comic=0;opacity=30;fontColor=#808080;" vertex="1" parent="b-44PByNiRyOyj7eA2m--0">
          <mxGeometry x="120" y="620" width="520" height="20" as="geometry" />
        </mxCell>
        <mxCell id="1I5frH841V0Z4SZeIjgv-5" value="Title/Page" visible="0" parent="1I5frH841V0Z4SZeIjgv-0" />
        <mxCell id="1I5frH841V0Z4SZeIjgv-6" value="" style="group;fontSize=10;" vertex="1" connectable="0" parent="1I5frH841V0Z4SZeIjgv-5">
          <mxGeometry x="120" y="120" width="560" height="45" as="geometry" />
        </mxCell>
        <mxCell id="1I5frH841V0Z4SZeIjgv-7" value="&lt;span style=&quot;font-size: 12px;&quot;&gt;Base Logical Module - Qualities -&amp;nbsp;&lt;/span&gt;&lt;span style=&quot;font-size: 12px;&quot;&gt;ISO-25010 Qualities Addressed - Performance&lt;/span&gt;" style="text;strokeColor=none;fillColor=none;html=1;fontSize=12;fontStyle=1;verticalAlign=middle;align=left;shadow=0;glass=0;comic=0;opacity=30;fontColor=#808080;" vertex="1" parent="1I5frH841V0Z4SZeIjgv-6">
          <mxGeometry width="560" height="40" as="geometry" />
        </mxCell>
        <mxCell id="1I5frH841V0Z4SZeIjgv-8" value="" style="line;strokeWidth=2;html=1;shadow=0;glass=0;comic=0;fillColor=none;fontSize=10;fontColor=#CCCCCC;labelBackgroundColor=none;strokeColor=#CCCCCC;" vertex="1" parent="1I5frH841V0Z4SZeIjgv-6">
          <mxGeometry y="35" width="560" height="10" as="geometry" />
        </mxCell>
        <mxCell id="1I5frH841V0Z4SZeIjgv-1" value="About" parent="1I5frH841V0Z4SZeIjgv-0" />
      </root>
    </mxGraphModel>
  </diagram>
</mxfile>
